<svg xmlns="http://www.w3.org/2000/svg" viewBox="0 0 512 512" width="100%" height="100%">
  <defs>
    <clipPath id="screen-clip">
      <rect x="44" y="64" width="424" height="340" rx="16" />
    </clipPath>
    
    <filter id="shadow" x="-20%" y="-20%" width="140%" height="140%">
      <feDropShadow dx="0" dy="6" stdDeviation="6" flood-color="#000000" flood-opacity="0.20" />
    </filter>
  </defs>

  <rect x="28" y="48" width="456" height="416" rx="32" fill="#a52a23" />

  <rect x="44" y="64" width="424" height="340" rx="16" fill="#cc362d" />

  <polygon points="44,404 468,64 468,404" fill="#b02f26" clip-path="url(#screen-clip)" />

  <rect x="220" y="426" width="72" height="12" rx="6" fill="#da5c55" />
  
  <circle cx="410" cy="432" r="8" fill="#da5c55" />

  <g filter="url(#shadow)">
    <polygon points="256,135 232,211 151,211 216,258 191,334 256,287" fill="#ffffff" />
    <polygon points="256,135 280,211 361,211 296,258 321,334 256,287" fill="#e2e6eb" />
  </g>

  <text x="256" y="400" font-family="Arial, sans-serif" font-size="72" font-weight="bold" fill="#ffffff" text-anchor="middle" filter="url(#shadow)">ednum</text>
</svg>
